# File created by Blade
# Date/Time:  Wed Jan 21 16:27:40 2015
# Frame Rate: 120.000 fps
#------------------------------------------------------
:FULLY-SPECIFIED
:DEGREES
651
root 16.283172 9.995269 -21.385804 -193.217637 36.030818 -208.143604
Spine 51.264653 -16.702491 -9.672942
Head -12.266235 -25.534900 17.524615
LeftShoulder 14.198942 -36.134873 5.195346
LeftArm 23.056090 36.005838 -73.477269
LeftForeArm -21.410412 -0.000000 24.713648
LeftHand -10.739867 -0.000000 12.828119
LeftHandThumb1 -26.253704 0.000000 33.147579
RightShoulder -1.738449 -10.375493 7.202754
RightArm 27.421459 -7.335772 65.669452
RightForeArm -38.761857 -0.000000 39.078804
RightHand -8.450192 0.000000 -28.944877
RightHandThumb1 -24.326973 -0.000000 -32.862282
LeftUpLeg 19.179468 -9.762125 28.581279
LeftLeg 52.320708 -0.000000 -0.000000
LeftFoot -3.400385 31.177540 -15.258063
LeftToeBase 7.470268 -0.000000 -0.000000
RightUpLeg -100.947404 -36.309936 11.761588
RightLeg -4.275771 -0.000000 0.000000
RightFoot 9.969731 -45.881194 -3.488376
RightToeBase -0.044520 -0.000000 0.000000
652
root 16.291097 9.945869 -21.346953 -193.142496 35.924129 -208.036112
Spine 51.153089 -16.714058 -9.702900
Head -12.044239 -25.562357 17.449163
LeftShoulder 14.052850 -36.073321 5.343633
LeftArm 23.071383 36.083634 -73.457026
LeftForeArm -21.375220 -0.000000 24.854194
LeftHand -10.867806 0.000000 12.881804
LeftHandThumb1 -26.253704 0.000000 33.147579
RightShoulder -1.781452 -10.288293 7.247375
RightArm 27.175658 -7.393196 65.949717
RightForeArm -39.320027 -0.000000 39.129183
RightHand -8.602940 -0.000000 -28.904424
RightHandThumb1 -24.326973 -0.000000 -32.862282
LeftUpLeg 19.103089 -9.799142 28.728311
LeftLeg 52.247109 -0.000000 -0.000000
LeftFoot -3.308099 31.865880 -14.955278
LeftToeBase 8.042278 -0.000000 -0.000000
RightUpLeg -101.002973 -36.279598 11.918433
RightLeg -4.397381 -0.000000 0.000000
RightFoot 10.809184 -45.739955 -4.578029
RightToeBase 0.166281 -0.000000 -0.000000
653
root 16.305911 9.897220 -21.310694 -193.052264 35.811357 -207.853118
Spine 51.077931 -16.787377 -9.693860
Head -11.795624 -25.553711 17.302873
LeftShoulder 13.909529 -36.032621 5.478071
LeftArm 23.042525 36.129123 -73.470731
LeftForeArm -21.385716 -0.000000 24.941291
LeftHand -10.930695 -0.000000 12.926461
LeftHandThumb1 -26.253704 0.000000 33.147579
RightShoulder -1.799988 -10.283803 7.256305
RightArm 26.998748 -7.262608 66.323213
RightForeArm -39.733139 0.000000 39.154484
RightHand -8.586876 -0.000000 -28.830455
RightHandThumb1 -24.326973 -0.000000 -32.862282
LeftUpLeg 19.031613 -9.832732 28.947084
LeftLeg 52.148630 -0.000000 -0.000000
LeftFoot -3.500980 32.697974 -15.436871
LeftToeBase 8.190972 -0.000000 -0.000000
RightUpLeg -100.936103 -36.344661 11.993457
RightLeg -4.566351 -0.000000 0.000000
RightFoot 11.332503 -45.532055 -5.010609
RightToeBase 0.992348 -0.000000 -0.000000
654
root 16.320408 9.851093 -21.276469 -192.993262 35.695794 -207.708138
Spine 50.995639 -16.838655 -9.702590
Head -11.509705 -25.559518 17.152404
LeftShoulder 13.750273 -35.953801 5.584873
LeftArm 23.184753 36.311873 -73.320938
LeftForeArm -21.535809 -0.000000 24.937074
LeftHand -11.005031 -0.000000 12.917392
LeftHandThumb1 -26.253704 0.000000 33.147579
RightShoulder -1.853114 -10.348969 7.315744
RightArm 26.869628 -7.124429 66.642286
RightForeArm -39.815675 -0.000000 39.283803
RightHand -8.497783 -0.000000 -28.967791
RightHandThumb1 -24.326973 -0.000000 -32.862282
LeftUpLeg 19.016611 -9.890606 29.094141
LeftLeg 52.028139 -0.000000 -0.000000
LeftFoot -3.736866 33.449061 -15.311597
LeftToeBase 8.373746 -0.000000 -0.000000
RightUpLeg -100.718311 -36.446527 11.776512
RightLeg -4.719262 -0.000000 0.000000
RightFoot 12.062160 -45.547752 -5.230979
RightToeBase 0.077215 -0.000000 -0.000000
655
root 16.333277 9.807600 -21.243045 -192.903027 35.605852 -207.576922
Spine 50.868590 -16.861553 -9.693525
Head -11.246457 -25.595221 17.047475
LeftShoulder 13.638653 -35.863578 5.705279
LeftArm 23.272517 36.405536 -73.248477
LeftForeArm -21.551857 -0.000000 24.967933
LeftHand -11.073374 0.000000 12.932831
LeftHandThumb1 -26.253704 0.000000 33.147579
RightShoulder -1.899840 -10.338425 7.407848
RightArm 26.622476 -7.036445 66.885816
RightForeArm -40.015612 -0.000000 39.583742
RightHand -8.599023 -0.000000 -28.852995
RightHandThumb1 -24.326973 -0.000000 -32.862282
LeftUpLeg 18.935405 -9.901382 29.240534
LeftLeg 52.024684 -0.000000 -0.000000
LeftFoot -3.848797 34.136248 -15.038888
LeftToeBase 8.822349 -0.000000 -0.000000
RightUpLeg -100.589913 -36.498904 11.614717
RightLeg -4.768213 -0.000000 0.000000
RightFoot 13.067953 -45.327469 -6.059071
RightToeBase 1.323336 -0.000000 -0.000000
656
root 16.349029 9.764674 -21.211624 -192.835552 35.497822 -207.423273
Spine 50.780986 -16.891281 -9.675600
Head -10.975616 -25.647802 16.965382
LeftShoulder 13.439338 -35.807632 5.807435
LeftArm 23.530818 36.689964 -73.060924
LeftForeArm -21.664225 -0.000000 24.823068
LeftHand -11.077893 -0.000000 12.889968
LeftHandThumb1 -26.253704 0.000000 33.147579
RightShoulder -1.926452 -10.320882 7.432356
RightArm 26.414291 -6.957678 67.169887
RightForeArm -40.226410 -0.000000 39.761445
RightHand -8.586330 -0.000000 -28.737218
RightHandThumb1 -24.326973 -0.000000 -32.862282
LeftUpLeg 18.885914 -9.941208 29.395856
LeftLeg 52.006015 -0.000000 -0.000000
LeftFoot -4.240699 34.849212 -15.404200
LeftToeBase 9.451612 -0.000000 -0.000000
RightUpLeg -100.523062 -36.574473 11.567077
RightLeg -4.748547 -0.000000 0.000000
RightFoot 14.082633 -44.786720 -6.690146
RightToeBase 1.929087 -0.000000 -0.000000
